<svg id="구성_요소_15_29" data-name="구성 요소 15 – 29" xmlns="http://www.w3.org/2000/svg" width="42" height="42" viewBox="0 0 42 42">
  <rect id="사각형_1192" data-name="사각형 1192" width="42" height="42" rx="4" fill="none"/>
  <g id="그룹_1476" data-name="그룹 1476" transform="translate(-2127 3001)">
    <path id="패스_2009" data-name="패스 2009" d="M21,19H3a1,1,0,0,0,0,2H21a1,1,0,0,0,0-2Z" transform="translate(2136 -2991)" fill="#797979"/>
    <path id="패스_2010" data-name="패스 2010" d="M12,2a1,1,0,0,0-1,1V13.59l-3.29-3.3A1,1,0,0,0,6.3,11.7l5,5a1,1,0,0,0,1.41,0l5-5a1,1,0,0,0-1.41-1.41L13,13.59V3A1,1,0,0,0,12,2Z" transform="translate(2136 -2992)" fill="#797979"/>
  </g>
</svg>
