<svg xmlns="http://www.w3.org/2000/svg" width="15" height="20" viewBox="0 0 15 20">
  <g id="그룹_2059" data-name="그룹 2059" transform="translate(-1749 -693)">
    <path id="사각형_1514" data-name="사각형 1514" d="M0,0H15a0,0,0,0,1,0,0V16a4,4,0,0,1-4,4H4a4,4,0,0,1-4-4V0A0,0,0,0,1,0,0Z" transform="translate(1749 693)" fill="#424c53"/>
    <rect id="사각형_1515" data-name="사각형 1515" width="11" height="5" transform="translate(1751 695)" fill="#fff"/>
    <rect id="사각형_1516" data-name="사각형 1516" width="3" height="2" transform="translate(1751 702)" fill="#fff"/>
    <rect id="사각형_1519" data-name="사각형 1519" width="3" height="2" transform="translate(1751 705)" fill="#fff"/>
    <rect id="사각형_1522" data-name="사각형 1522" width="3" height="2" transform="translate(1751 708)" fill="#fff"/>
    <rect id="사각형_1517" data-name="사각형 1517" width="3" height="2" transform="translate(1755 702)" fill="#fff"/>
    <rect id="사각형_1520" data-name="사각형 1520" width="3" height="2" transform="translate(1755 705)" fill="#fff"/>
    <rect id="사각형_1523" data-name="사각형 1523" width="3" height="2" transform="translate(1755 708)" fill="#fff"/>
    <rect id="사각형_1518" data-name="사각형 1518" width="3" height="2" transform="translate(1759 702)" fill="#fff"/>
    <rect id="사각형_1521" data-name="사각형 1521" width="3" height="2" transform="translate(1759 705)" fill="#fff"/>
    <rect id="사각형_1524" data-name="사각형 1524" width="3" height="2" transform="translate(1759 708)" fill="#fff"/>
  </g>
</svg>
