<svg xmlns="http://www.w3.org/2000/svg" width="12" height="12.48" viewBox="0 0 12 12.48">
  <g id="그룹_1969" data-name="그룹 1969" transform="translate(-1687 -152.76)">
    <path id="패스_2056" data-name="패스 2056" d="M64.874,184.1a9.526,9.526,0,0,1-5.766,0,5.887,5.887,0,0,1-1.869,1.085.06.06,0,0,0,.027.117,12.592,12.592,0,0,0,1.842-.36,9.645,9.645,0,0,0,2.883.417,8.579,8.579,0,0,0,2.883-.417,11.873,11.873,0,0,0,1.86.363.06.06,0,0,0,.027-.117A6.387,6.387,0,0,1,64.874,184.1Zm2.811-4.767L62.1,176.772a.236.236,0,0,0-.2,0l-5.583,2.563a.542.542,0,0,0-.315.492.557.557,0,0,0,.039.2L57.68,184.1a3.416,3.416,0,0,0,1.7-.66A7.262,7.262,0,0,0,61.76,184c.084.006.165.006.24.006s.156,0,.24-.006a7.188,7.188,0,0,0,2.379-.558,3.416,3.416,0,0,0,1.7.66l1.641-4.074a.557.557,0,0,0,.039-.2A.542.542,0,0,0,67.685,179.336Zm-7,.75c-.2,0-.36-.294-.36-.66s.162-.66.36-.66.36.294.36.66S60.878,180.085,60.68,180.085Zm2.64,0c-.2,0-.36-.294-.36-.66s.162-.66.36-.66.36.294.36.66S63.518,180.085,63.32,180.085Z" transform="translate(1631 -20.122)" fill="#fff"/>
    <path id="패스_2057" data-name="패스 2057" d="M110.622,50.373v0c-.168-.8-.525-1.409-1.2-1.409h-1.038l-.06-.24A.96.96,0,0,0,107.4,48h-1.709a.959.959,0,0,0-.93.724l-.06.237h-1.032c-.687,0-1.053.622-1.194,1.412l-.546,2.908a.12.12,0,0,0,.168.132l.759-.348a.121.121,0,0,0,.069-.087l.486-2.572c.075-.321.219-.481.483-.481H109.2c.267,0,.393.15.483.481l.486,2.572a.114.114,0,0,0,.069.087l.762.351a.12.12,0,0,0,.168-.132Z" transform="translate(1586.453 104.76)" fill="#fff"/>
  </g>
</svg>
