<svg xmlns="http://www.w3.org/2000/svg" width="10" height="6" viewBox="0 0 10 6">
  <path id="패스_2031" data-name="패스 2031" d="M-403.448,358.892h0a.813.813,0,0,0-.114-.071.973.973,0,0,0-1.087-.021.941.941,0,0,0-.147.092l-3.372,3.187-3.372-3.186a.523.523,0,0,0-.053-.033.94.94,0,0,0-.259-.163.993.993,0,0,0-.336-.063c-.009,0-.016,0-.025,0h0a1,1,0,0,0-.361.068.956.956,0,0,0-.308.193l-.006,0h0a.9.9,0,0,0-.207.295.855.855,0,0,0,0,.683.9.9,0,0,0,.208.3l4.721,4.461h0l4.721-4.461h0A.866.866,0,0,0-403.448,358.892Z" transform="translate(-403.168 364.628) rotate(180)" fill="#16191c"/>
</svg>
