<svg xmlns="http://www.w3.org/2000/svg" width="16" height="16" viewBox="0 0 16 16">
  <g id="그룹_1575" data-name="그룹 1575" transform="translate(-1 -1)">
    <path id="패스_1969" data-name="패스 1969" d="M12.077,7.769a4.148,4.148,0,0,0-1.264-3.043A4.149,4.149,0,0,0,7.769,3.462,4.149,4.149,0,0,0,4.726,4.726,4.149,4.149,0,0,0,3.462,7.769a4.149,4.149,0,0,0,1.264,3.043,4.148,4.148,0,0,0,3.043,1.264,4.148,4.148,0,0,0,3.043-1.264,4.148,4.148,0,0,0,1.264-3.043Zm4.923,8A1.248,1.248,0,0,1,15.769,17a1.143,1.143,0,0,1-.865-.365l-3.3-3.288A6.76,6.76,0,0,1,5.139,14,6.629,6.629,0,0,1,1.534,10.4a6.747,6.747,0,0,1,0-5.26A6.629,6.629,0,0,1,5.139,1.534a6.747,6.747,0,0,1,5.26,0A6.629,6.629,0,0,1,14,5.139a6.76,6.76,0,0,1-.659,6.466l3.3,3.3a1.178,1.178,0,0,1,.356.865Z" fill="#fff" fill-rule="evenodd"/>
  </g>
</svg>
