<svg xmlns="http://www.w3.org/2000/svg" width="29" height="43" viewBox="0 0 29 43">
  <g id="그룹_1964" data-name="그룹 1964" transform="translate(2543 -2510.1)">
    <path id="패스_1996" data-name="패스 1996" d="M116.07,124.2c-7.732,0-14,6.541-14,14.61,0,10.2,12.776,26.373,13.329,27.062a.866.866,0,0,0,.671.328.851.851,0,0,0,.671-.328c.542-.689,13.329-16.848,13.329-27.062C130.07,130.738,123.8,124.2,116.07,124.2Z" transform="translate(-2644.57 2386.403)" fill="#16bf42" stroke="#006a1c" stroke-width="1"/>
    <circle id="타원_109" data-name="타원 109" cx="11.5" cy="11.5" r="11.5" transform="translate(-2540 2514)" fill="#006a1c" opacity="0.6"/>
    <g id="그룹_1435" data-name="그룹 1435" transform="translate(-2438.881 2121.379)">
      <path id="패스_1997" data-name="패스 1997" d="M-99.119,404h3.828v.605H-98.1v1.045h5.566v.484h-5.555v2.552h7.249v-1.045h-5.808v-.528H-91.1v-2.508h-2.739V404H-90v-1.066h-9.119Z" fill="#fff"/>
      <path id="패스_1998" data-name="패스 1998" d="M-96.457,401.223a7.136,7.136,0,0,1-2.31.39l.4,1.068A8.629,8.629,0,0,0-96,402.268a3.212,3.212,0,0,0,1.419-.9,3.307,3.307,0,0,0,1.43.9,8.606,8.606,0,0,0,2.365.413l.407-1.068a9.669,9.669,0,0,1-1.331-.137,6.108,6.108,0,0,1-.979-.253,2.317,2.317,0,0,1-.649-.341,1.268,1.268,0,0,1-.352-.412h2.816v-1.045H-93.85v-.8H-95.3v.8h-2.959v1.045h2.794A1.809,1.809,0,0,1-96.457,401.223Z" fill="#fff"/>
      <path id="패스_1999" data-name="패스 1999" d="M-86.282,406.927h5.236v-2.75h-6.688v1.1h5.258v.616h-5.247v2.794h6.963v-1.122h-5.522Z" fill="#fff"/>
      <path id="패스_2000" data-name="패스 2000" d="M-81.045,400.591v-1.958H-82.5v5.147h1.452v-2.013h1.331v-1.177Z" fill="#fff"/>
      <path id="패스_2001" data-name="패스 2001" d="M-83.873,399.072H-85.3v1.21h-1.99v-1.21h-1.431v4.445h4.851Zm-1.43,3.312h-1.99v-1.013h1.99Z" fill="#fff"/>
    </g>
  </g>
</svg>
