<svg xmlns="http://www.w3.org/2000/svg" width="14" height="14" viewBox="0 0 14 14">
  <g id="noun_edit_1714931" transform="translate(-70.911 -70.293)">
    <g id="그룹_1957" data-name="그룹 1957" transform="translate(70.911 70.293)">
      <g id="그룹_1952" data-name="그룹 1952" transform="translate(3.925)">
        <g id="그룹_1951" data-name="그룹 1951">
          <path id="패스_2053" data-name="패스 2053" d="M351.961,72.31l-.661.661-1.586,1.586q-.954.954-1.911,1.91l-1.652,1.652c-.269.269-.542.534-.806.806l-.012.012c.195-.081.39-.162.585-.241l-1.482.012-.211,0,.826.826c0-.494.008-.988.012-1.482,0-.071,0-.14,0-.211-.081.195-.162.39-.241.585l.664-.664,1.592-1.592,1.911-1.911,1.657-1.657c.264-.264.525-.532.793-.793a.55.55,0,0,1,.046-.041l-.167.129a.386.386,0,0,1,.081-.045l-.2.083a.565.565,0,0,1,.088-.021l-.22.03a.4.4,0,0,1,.089,0l-.22-.03a.413.413,0,0,1,.064.018l-.2-.083a.375.375,0,0,1,.079.045l-.167-.129a6.02,6.02,0,0,1,.438.433l.661.661a2.17,2.17,0,0,1,.172.177l-.129-.167a.387.387,0,0,1,.045.081c-.028-.066-.056-.132-.083-.2a.562.562,0,0,1,.021.088l-.03-.22a.416.416,0,0,1,0,.091l.03-.22a.59.59,0,0,1-.026.088c.028-.066.056-.132.083-.2a.358.358,0,0,1-.036.059l.129-.167-.031.033a.867.867,0,0,0-.241.585.842.842,0,0,0,.241.585.832.832,0,0,0,.585.241.849.849,0,0,0,.585-.241,1.166,1.166,0,0,0,0-1.647c-.04-.043-.083-.083-.126-.126l-.626-.626c-.149-.149-.3-.3-.448-.448a1.177,1.177,0,0,0-1.424-.175,1.412,1.412,0,0,0-.241.192c-.165.164-.329.329-.492.492l-1,1-1.3,1.3-1.383,1.383-1.237,1.237-.882.882-.238.238-.056.056a.892.892,0,0,0-.254.6c-.018.509-.008,1.019-.013,1.528,0,.053,0,.106,0,.157a.837.837,0,0,0,.826.826l1.2-.01c.162,0,.324,0,.486,0a.921.921,0,0,0,.634-.284l1.211-1.211,2.152-2.156,2.114-2.114c.363-.363.73-.724,1.09-1.09l.015-.015a.829.829,0,0,0,0-1.17.832.832,0,0,0-.585-.241A.857.857,0,0,0,351.961,72.31Z" transform="translate(-343.399 -70.293)" fill="#0080ff"/>
        </g>
      </g>
      <g id="그룹_1954" data-name="그룹 1954" transform="translate(9.264 0.007)">
        <g id="그룹_1953" data-name="그룹 1953" transform="translate(0)">
          <path id="패스_2054" data-name="패스 2054" d="M669.8,72.736l-1.148,1.148-.16.16h1.168l-1.47-1.47-.208-.208v1.168l1.156-1.156a2.508,2.508,0,0,1,.19-.185l-.167.129a.39.39,0,0,1,.081-.045l-.2.083a.56.56,0,0,1,.088-.021l-.22.03a.4.4,0,0,1,.089,0l-.22-.03a.411.411,0,0,1,.064.018l-.2-.083a.379.379,0,0,1,.079.045l-.167-.129a6.016,6.016,0,0,1,.438.433l.661.661a2.192,2.192,0,0,1,.172.177L669.7,73.3a.388.388,0,0,1,.045.081c-.028-.066-.056-.132-.083-.2a.572.572,0,0,1,.021.088l-.03-.22a.427.427,0,0,1,0,.091c.01-.073.02-.147.03-.22a.583.583,0,0,1-.026.088c.028-.066.056-.132.083-.2a.358.358,0,0,1-.036.059l.129-.167c-.012.01-.021.021-.033.033a.868.868,0,0,0-.241.585.842.842,0,0,0,.241.585.832.832,0,0,0,.585.241.849.849,0,0,0,.585-.241,1.2,1.2,0,0,0,.3-1.122,1.168,1.168,0,0,0-.312-.534c-.081-.083-.164-.164-.245-.244l-.791-.791a2.813,2.813,0,0,0-.276-.251,1.171,1.171,0,0,0-1.541.114c-.216.213-.43.429-.644.644l-.649.649a.839.839,0,0,0,0,1.168l1.47,1.47.208.208a.839.839,0,0,0,1.168,0l1.148-1.148.16-.16a.829.829,0,0,0,0-1.17.832.832,0,0,0-1.168,0Z" transform="translate(-666.575 -70.726)" fill="#0080ff"/>
        </g>
      </g>
      <g id="그룹_1956" data-name="그룹 1956" transform="translate(0 0.018)">
        <g id="그룹_1955" data-name="그룹 1955">
          <path id="패스_2055" data-name="패스 2055" d="M83.323,77.937v5.057c0,.217,0,.434,0,.65a.944.944,0,0,1-.01.135l.029-.211a1.044,1.044,0,0,1-.062.227c.027-.063.054-.127.079-.189a1.058,1.058,0,0,1-.125.217l.124-.16a1.027,1.027,0,0,1-.176.176l.16-.124a1.06,1.06,0,0,1-.217.125l.189-.079a1.089,1.089,0,0,1-.227.062l.211-.029a3.21,3.21,0,0,1-.39.009h-9c-.417,0-.835,0-1.25,0a1.04,1.04,0,0,1-.141-.009l.211.029a1.046,1.046,0,0,1-.227-.062l.189.079a1.06,1.06,0,0,1-.217-.125l.16.124a1.027,1.027,0,0,1-.176-.176l.124.16a1.058,1.058,0,0,1-.125-.217c.027.063.054.127.079.189a1.086,1.086,0,0,1-.062-.227l.029.211a3.2,3.2,0,0,1-.01-.39V74.4c0-.417,0-.834,0-1.249a1.036,1.036,0,0,1,.01-.141l-.029.211a1.044,1.044,0,0,1,.062-.227c-.027.063-.054.127-.079.189a1.058,1.058,0,0,1,.125-.217l-.124.16a1.027,1.027,0,0,1,.176-.176l-.16.124a1.06,1.06,0,0,1,.217-.125l-.189.079a1.09,1.09,0,0,1,.227-.062l-.211.029a5.317,5.317,0,0,1,.655-.01h4.476c.236,0,.473,0,.709,0h.011a.826.826,0,0,0,.562-.231.8.8,0,0,0,0-1.122.823.823,0,0,0-.562-.231h-5.7a1.824,1.824,0,0,0-.85.214,1.756,1.756,0,0,0-.906,1.548V82.9c0,.249,0,.5,0,.745a1.754,1.754,0,0,0,.533,1.25,1.786,1.786,0,0,0,1.207.488h10.5A1.61,1.61,0,0,0,83.7,85.3a1.743,1.743,0,0,0,1.023-.878,1.886,1.886,0,0,0,.187-.8V77.932a.824.824,0,0,0-.232-.561.8.8,0,0,0-1.123,0,.839.839,0,0,0-.233.566Z" transform="translate(-70.911 -71.4)" fill="#0080ff"/>
        </g>
      </g>
    </g>
  </g>
</svg>
