<svg id="그룹_1564" data-name="그룹 1564" xmlns="http://www.w3.org/2000/svg" width="180.783" height="114.545" viewBox="0 0 180.783 114.545">
  <g id="그룹_1524" data-name="그룹 1524" transform="translate(0 15.811)">
    <g id="그룹_1508" data-name="그룹 1508" transform="translate(0 0)">
      <rect id="사각형_1130" data-name="사각형 1130" width="43.616" height="64.223" transform="matrix(0.831, -0.556, 0.556, 0.831, 0, 24.249)" fill="#f5f5f5"/>
    </g>
    <g id="그룹_1511" data-name="그룹 1511" transform="translate(34.796 41.768)">
      <g id="그룹_1509" data-name="그룹 1509" transform="translate(0 6.487)">
        <path id="패스_1994" data-name="패스 1994" d="M233.8,274.22l-.411,2.546-18.022-2.6.411-2.546Z" transform="translate(-215.368 -271.624)" fill="#e0e0e0"/>
      </g>
      <g id="그룹_1510" data-name="그룹 1510" transform="translate(6.49)">
        <path id="패스_1995" data-name="패스 1995" d="M238.322,251.546l2.586.373-2.867,17.744-2.586-.373Z" transform="translate(-235.454 -251.546)" fill="#e0e0e0"/>
      </g>
    </g>
    <g id="그룹_1513" data-name="그룹 1513" transform="translate(39.028 20.265)">
      <g id="그룹_1512" data-name="그룹 1512">
        <path id="패스_1996" data-name="패스 1996" d="M228.466,184.995" transform="translate(-228.466 -184.995)" fill="none" stroke="#fff" stroke-miterlimit="10" stroke-width="1"/>
      </g>
    </g>
    <g id="그룹_1515" data-name="그룹 1515" transform="translate(11.231 19.214)">
      <g id="그룹_1514" data-name="그룹 1514">
        <path id="패스_1997" data-name="패스 1997" d="M158.758,181.744c.026.039-3.607,2.514-8.114,5.528s-8.182,5.427-8.208,5.389,3.606-2.513,8.114-5.529S158.732,181.706,158.758,181.744Z" transform="translate(-142.436 -181.744)" fill="#e0e0e0"/>
      </g>
    </g>
    <g id="그룹_1517" data-name="그룹 1517" transform="translate(13.806 15.868)">
      <g id="그룹_1516" data-name="그룹 1516">
        <path id="패스_1998" data-name="패스 1998" d="M177.483,171.386c.026.039-6.016,4.125-13.493,9.126s-13.562,9.026-13.587,8.987,6.015-4.124,13.494-9.127S177.457,171.348,177.483,171.386Z" transform="translate(-150.403 -171.386)" fill="#e0e0e0"/>
      </g>
    </g>
    <g id="그룹_1519" data-name="그룹 1519" transform="translate(16.478 19.863)">
      <g id="그룹_1518" data-name="그룹 1518">
        <path id="패스_1999" data-name="패스 1999" d="M185.755,183.752c.026.039-6.016,4.125-13.492,9.126s-13.562,9.025-13.587,8.987,6.015-4.124,13.494-9.127S185.729,183.714,185.755,183.752Z" transform="translate(-158.675 -183.752)" fill="#e0e0e0"/>
      </g>
    </g>
    <g id="그룹_1521" data-name="그룹 1521" transform="translate(19.151 23.859)">
      <g id="그룹_1520" data-name="그룹 1520">
        <path id="패스_2000" data-name="패스 2000" d="M194.026,196.119c.026.038-6.016,4.125-13.492,9.126s-13.562,9.026-13.587,8.987,6.015-4.124,13.494-9.127S194,196.081,194.026,196.119Z" transform="translate(-166.946 -196.119)" fill="#e0e0e0"/>
      </g>
    </g>
    <g id="그룹_1523" data-name="그룹 1523" transform="translate(21.823 27.854)">
      <g id="그룹_1522" data-name="그룹 1522">
        <path id="패스_2001" data-name="패스 2001" d="M202.3,208.485c.026.039-6.016,4.125-13.493,9.126s-13.562,9.026-13.587,8.987,6.015-4.124,13.494-9.126S202.271,208.447,202.3,208.485Z" transform="translate(-175.217 -208.485)" fill="#e0e0e0"/>
      </g>
    </g>
  </g>
  <g id="그룹_1541" data-name="그룹 1541" transform="translate(120.35 47.352)">
    <g id="그룹_1525" data-name="그룹 1525" transform="translate(0 0)">
      <rect id="사각형_1131" data-name="사각형 1131" width="36.63" height="53.936" transform="translate(0 20.365) rotate(-33.777)" fill="#f5f5f5"/>
    </g>
    <g id="그룹_1528" data-name="그룹 1528" transform="translate(29.223 35.078)">
      <g id="그룹_1526" data-name="그룹 1526" transform="translate(0 5.448)">
        <path id="패스_2002" data-name="패스 2002" d="M606.766,360.612l-.346,2.138-15.135-2.18.346-2.138Z" transform="translate(-591.285 -358.431)" fill="#e0e0e0"/>
      </g>
      <g id="그룹_1527" data-name="그룹 1527" transform="translate(5.451)">
        <path id="패스_2003" data-name="패스 2003" d="M610.563,341.569l2.172.313-2.408,14.9-2.172-.313Z" transform="translate(-608.155 -341.569)" fill="#e0e0e0"/>
      </g>
    </g>
    <g id="그룹_1530" data-name="그룹 1530" transform="translate(32.777 17.019)">
      <g id="그룹_1529" data-name="그룹 1529">
        <path id="패스_2004" data-name="패스 2004" d="M602.285,285.678" transform="translate(-602.285 -285.678)" fill="none" stroke="#fff" stroke-miterlimit="10" stroke-width="1"/>
      </g>
    </g>
    <g id="그룹_1532" data-name="그룹 1532" transform="translate(9.432 16.136)">
      <g id="그룹_1531" data-name="그룹 1531">
        <path id="패스_2005" data-name="패스 2005" d="M543.742,282.947c.026.039-3.022,2.122-6.807,4.654s-6.875,4.553-6.9,4.514,3.021-2.122,6.807-4.654S543.716,282.908,543.742,282.947Z" transform="translate(-530.034 -282.946)" fill="#e0e0e0"/>
      </g>
    </g>
    <g id="그룹_1534" data-name="그룹 1534" transform="translate(11.594 13.326)">
      <g id="그룹_1533" data-name="그룹 1533">
        <path id="패스_2006" data-name="패스 2006" d="M559.468,274.248c.026.039-5.045,3.476-11.324,7.675s-11.393,7.575-11.419,7.536,5.044-3.475,11.325-7.676S559.442,274.21,559.468,274.248Z" transform="translate(-536.726 -274.248)" fill="#e0e0e0"/>
      </g>
    </g>
    <g id="그룹_1536" data-name="그룹 1536" transform="translate(13.839 16.682)">
      <g id="그룹_1535" data-name="그룹 1535">
        <path id="패스_2007" data-name="패스 2007" d="M566.415,284.634c.026.038-5.045,3.475-11.324,7.675s-11.393,7.575-11.418,7.536,5.044-3.475,11.325-7.676S566.389,284.6,566.415,284.634Z" transform="translate(-543.673 -284.634)" fill="#e0e0e0"/>
      </g>
    </g>
    <g id="그룹_1538" data-name="그룹 1538" transform="translate(16.083 20.037)">
      <g id="그룹_1537" data-name="그룹 1537">
        <path id="패스_2008" data-name="패스 2008" d="M573.361,295.019c.026.039-5.045,3.476-11.324,7.675s-11.393,7.575-11.419,7.536,5.044-3.475,11.325-7.676S573.336,294.981,573.361,295.019Z" transform="translate(-550.619 -295.019)" fill="#e0e0e0"/>
      </g>
    </g>
    <g id="그룹_1540" data-name="그룹 1540" transform="translate(18.328 23.393)">
      <g id="그룹_1539" data-name="그룹 1539">
        <path id="패스_2009" data-name="패스 2009" d="M580.308,305.405c.026.039-5.045,3.475-11.324,7.675s-11.393,7.575-11.418,7.536,5.044-3.475,11.325-7.676S580.282,305.367,580.308,305.405Z" transform="translate(-557.566 -305.405)" fill="#e0e0e0"/>
      </g>
    </g>
  </g>
  <g id="그룹_1558" data-name="그룹 1558" transform="translate(47.324 0)">
    <g id="그룹_1542" data-name="그룹 1542" transform="translate(0 0)">
      <rect id="사각형_1132" data-name="사각형 1132" width="37.674" height="55.473" transform="matrix(0.882, 0.472, -0.472, 0.882, 26.161, 0)" fill="#f5f5f5"/>
    </g>
    <g id="그룹_1545" data-name="그룹 1545" transform="translate(16.077 36.592)">
      <g id="그룹_1543" data-name="그룹 1543" transform="translate(3.999)">
        <path id="패스_2010" data-name="패스 2010" d="M331.8,201.384l-2.108.722-5.35-14.79,2.108-.722Z" transform="translate(-324.341 -186.594)" fill="#e0e0e0"/>
      </g>
      <g id="그룹_1544" data-name="그룹 1544" transform="translate(0 4.179)">
        <path id="패스_2011" data-name="패스 2011" d="M326.652,199.529l.768,2.122-14.688,5.03-.768-2.122Z" transform="translate(-311.964 -199.529)" fill="#e0e0e0"/>
      </g>
    </g>
    <g id="그룹_1547" data-name="그룹 1547" transform="translate(45.068 28.122)">
      <g id="그룹_1546" data-name="그룹 1546">
        <path id="패스_2012" data-name="패스 2012" d="M401.689,160.379" transform="translate(-401.689 -160.379)" fill="none" stroke="#fff" stroke-miterlimit="10" stroke-width="1"/>
      </g>
    </g>
    <g id="그룹_1549" data-name="그룹 1549" transform="translate(26.245 10.95)">
      <g id="그룹_1548" data-name="그룹 1548">
        <path id="패스_2013" data-name="패스 2013" d="M358.39,115.234c-.026.049-3.4-1.7-7.525-3.911s-7.458-4.039-7.432-4.088,3.395,1.7,7.526,3.911S358.416,115.185,358.39,115.234Z" transform="translate(-343.434 -107.234)" fill="#e0e0e0"/>
      </g>
    </g>
    <g id="그룹_1551" data-name="그룹 1551" transform="translate(24.359 14.478)">
      <g id="그룹_1550" data-name="그룹 1550">
        <path id="패스_2014" data-name="패스 2014" d="M362.411,131.423c-.026.048-5.6-2.883-12.454-6.547s-12.387-6.675-12.361-6.724,5.6,2.882,12.455,6.548S362.437,131.374,362.411,131.423Z" transform="translate(-337.597 -118.151)" fill="#e0e0e0"/>
      </g>
    </g>
    <g id="그룹_1553" data-name="그룹 1553" transform="translate(22.401 18.139)">
      <g id="그룹_1552" data-name="그룹 1552">
        <path id="패스_2015" data-name="패스 2015" d="M356.35,142.754c-.026.048-5.6-2.883-12.454-6.547s-12.386-6.675-12.361-6.724,5.6,2.882,12.455,6.548S356.376,142.705,356.35,142.754Z" transform="translate(-331.536 -129.482)" fill="#e0e0e0"/>
      </g>
    </g>
    <g id="그룹_1555" data-name="그룹 1555" transform="translate(20.443 21.8)">
      <g id="그룹_1554" data-name="그룹 1554">
        <path id="패스_2016" data-name="패스 2016" d="M350.29,154.086c-.026.049-5.6-2.883-12.454-6.547s-12.387-6.675-12.361-6.724,5.6,2.882,12.455,6.548S350.316,154.037,350.29,154.086Z" transform="translate(-325.476 -140.814)" fill="#e0e0e0"/>
      </g>
    </g>
    <g id="그룹_1557" data-name="그룹 1557" transform="translate(18.485 25.462)">
      <g id="그룹_1556" data-name="그룹 1556">
        <path id="패스_2017" data-name="패스 2017" d="M344.229,165.418c-.026.049-5.6-2.883-12.454-6.547s-12.387-6.675-12.361-6.724,5.6,2.882,12.455,6.548S344.255,165.369,344.229,165.418Z" transform="translate(-319.415 -152.146)" fill="#e0e0e0"/>
      </g>
    </g>
  </g>
  <g id="그룹_1563" data-name="그룹 1563" transform="translate(20.97 32.887)">
    <g id="그룹_1559" data-name="그룹 1559" transform="translate(27.914 10.997)">
      <path id="패스_2018" data-name="패스 2018" d="M271.889,226.236l-11.425,58.74-1.5,7.689,76.272-.376c3.423-.017,6.457-3.056,7.558-7.572l13.525-55.456c.836-3.428-1-6.993-3.6-6.991l-77.2.081C273.825,222.353,272.335,223.943,271.889,226.236Z" transform="translate(-258.968 -222.27)" fill="#1173fd"/>
    </g>
    <g id="그룹_1560" data-name="그룹 1560" transform="translate(27.914 10.997)" opacity="0.5">
      <path id="패스_2019" data-name="패스 2019" d="M271.889,226.236l-11.425,58.74-1.5,7.689,76.272-.376c3.423-.017,6.457-3.056,7.558-7.572l13.525-55.456c.836-3.428-1-6.993-3.6-6.991l-77.2.081C273.825,222.353,272.335,223.943,271.889,226.236Z" transform="translate(-258.968 -222.27)"/>
    </g>
    <g id="그룹_1561" data-name="그룹 1561" transform="translate(0)">
      <path id="패스_2020" data-name="패스 2020" d="M269.445,257.958l-8.076-65.075a5.122,5.122,0,0,0-4.963-4.647l-17.708.058a4.826,4.826,0,0,0-3.5,1.551l-8.409,8.938-49.249.257a5.239,5.239,0,0,0-4.923,6.063l7.5,60.146a5.122,5.122,0,0,0,4.956,4.644l85.831-.17c9.56.2,10.472-2.625,10.472-2.625C270.422,269.526,269.446,257.965,269.445,257.958Z" transform="translate(-172.575 -188.235)" fill="#1173fd"/>
    </g>
    <g id="그룹_1562" data-name="그룹 1562" transform="translate(34.671 35.953)" opacity="0.5">
      <path id="패스_2021" data-name="패스 2021" d="M305.07,321.7l-2.895,3.109L279.88,304.751l2.895-3.109Z" transform="translate(-279.88 -300.953)" fill="#fff"/>
      <path id="패스_2022" data-name="패스 2022" d="M302.866,299.509l3.2,2.878-20.173,21.666-3.2-2.878Z" transform="translate(-281.784 -299.509)" fill="#fff"/>
    </g>
  </g>
</svg>
