<svg id="구성_요소_4_162" data-name="구성 요소 4 – 162" xmlns="http://www.w3.org/2000/svg" width="58.536" height="28.161" viewBox="0 0 58.536 28.161">
  <g id="그룹_993" data-name="그룹 993" transform="translate(0 -0.005)">
    <path id="패스_1908" data-name="패스 1908" d="M1045.918,216.811c-1.46,0-2.86-.007-4.261.006-.24,0-.311-.146-.407-.3l-5.067-8.175c-.4-.649-.808-1.3-1.235-1.986-.209.331-.405.64-.6.946q-2.856,4.608-5.707,9.221a.534.534,0,0,1-.531.3c-1.359-.014-2.719-.006-4.078-.006-.048-.152.064-.233.122-.326q4.146-6.7,8.3-13.39a3.4,3.4,0,0,1,1.736-1.553,2.312,2.312,0,0,1,2.3.44,3.9,3.9,0,0,1,.906,1.04q4.2,6.777,8.4,13.557C1045.829,216.633,1045.853,216.692,1045.918,216.811Z" transform="translate(-987.382 -201.4)" fill="#4e5961"/>
    <path id="패스_1909" data-name="패스 1909" d="M818.106,213.806a1.332,1.332,0,0,0-1.085-.629,6.212,6.212,0,0,0-.752-.041c-3.439,0-6.877.007-10.316,0a4.944,4.944,0,0,1-.48-9.873c1.424-.074,2.854-.036,4.281-.039,2.486,0,4.972.006,7.458-.009.338,0,.417.1.41.421q-.034,1.367,0,2.736c.007.314-.08.39-.392.389q-5.376-.017-10.751-.006a1.363,1.363,0,0,0-1.32.84,1.325,1.325,0,0,0,.214,1.514,1.415,1.415,0,0,0,1.156.5q3.193-.01,6.387,0a7.641,7.641,0,0,1,2.681.441,3.673,3.673,0,0,1,2.593,3.439C818.209,213.6,818.316,213.749,818.106,213.806Z" transform="translate(-782.075 -203.061)" fill="#4e5961"/>
    <path id="패스_1910" data-name="패스 1910" d="M641.16,218.5h-5.5a.749.749,0,0,1-.469-.168q-4.306-3.17-8.616-6.338a1.364,1.364,0,0,1-.01-2.393q4.068-3.095,8.137-6.186a.675.675,0,0,1,.428-.174c1.731,0,3.463,0,5.2.006a1.6,1.6,0,0,1,.218.04c-.755.576-1.463,1.12-2.173,1.658q-3.662,2.784-7.327,5.554c-.293.22-.223.305.023.486q4.949,3.635,9.885,7.287C641.026,218.324,641.122,218.354,641.16,218.5Z" transform="translate(-621.058 -203.089)" fill="#4e5961"/>
    <path id="패스_1911" data-name="패스 1911" d="M745.31,357.464c0-1.085.006-2.14,0-3.195,0-.257.2-.251.343-.3q4.942-1.806,9.887-3.6,4.848-1.764,9.7-3.524a3.083,3.083,0,0,0,1.815-1.328,4.632,4.632,0,0,1-3.01,5.157q-6.986,2.548-13.975,5.083l-4.424,1.607C745.547,357.391,745.445,357.419,745.31,357.464Z" transform="translate(-730.955 -333.982)" fill="#4e5961"/>
    <path id="패스_1912" data-name="패스 1912" d="M745.274,426.228c0-1.056,0-2.112,0-3.168,0-.233.175-.236.311-.285q2.675-.979,5.353-1.946l15.284-5.563a.689.689,0,0,1,.378-.1,4.022,4.022,0,0,1-2.2,4.088,33.128,33.128,0,0,1-3.471,1.326q-7.62,2.787-15.248,5.551A.819.819,0,0,1,745.274,426.228Z" transform="translate(-730.918 -398.065)" fill="#4e5961"/>
    <path id="패스_1913" data-name="패스 1913" d="M569.76,210.932c0,2.4-.006,4.807.007,7.21,0,.305-.068.4-.389.4-1.083-.022-2.167-.017-3.251,0-.263,0-.327-.074-.327-.331q.012-7.308,0-14.618c0-.233.045-.32.3-.315q1.645.021,3.29,0c.291,0,.379.069.377.372C569.754,206.075,569.76,208.5,569.76,210.932Z" transform="translate(-565.8 -203.123)" fill="#4e5961"/>
    <path id="패스_1914" data-name="패스 1914" d="M1016.37,332.03c.145-.076.027-.222.086-.32a.65.65,0,0,1,.053.48C1016.408,332.175,1016.38,332.111,1016.37,332.03Z" transform="translate(-980.339 -321.285)" fill="#4e5961"/>
  </g>
</svg>
